PathFileType	4	(X/Y/Z)	C:\Github\FootballMatch-and-Movement-Analysis\output\test4 Exam_2026-03-06_143128_tvc1_Sports2D\test4 Exam_2026-03-06_143128_tvc1_Sports2D_px_person00.trc
DataRate	CameraRate	NumFrames	NumMarkers	Units	OrigDataRate	OrigDataStartFrame	OrigNumFrames
30.0	30.0	5	22	m	30.0	80	320
Frame#	Time	Hip			RHip			RKnee			RAnkle			RBigToe			RSmallToe			RHeel			LHip			LKnee			LAnkle			LBigToe			LSmallToe			LHeel			Neck			Head			Nose			RShoulder			RElbow			RWrist			LShoulder			LElbow			LWrist			
		X1	Y1	Z1	X2	Y2	Z2	X3	Y3	Z3	X4	Y4	Z4	X5	Y5	Z5	X6	Y6	Z6	X7	Y7	Z7	X8	Y8	Z8	X9	Y9	Z9	X10	Y10	Z10	X11	Y11	Z11	X12	Y12	Z12	X13	Y13	Z13	X14	Y14	Z14	X15	Y15	Z15	X16	Y16	Z16	X17	Y17	Z17	X18	Y18	Z18	X19	Y19	Z19	X20	Y20	Z20	X21	Y21	Z21	X22	Y22	Z22
80	2.675026123301985	704.8941255517526	678.9320102770522	0.0	692.4610393546153	686.4588739735138	0.0	704.0980367189288	844.0889812334246	0.0	730.849906867084	987.4192685047519	0.0	687.223649678712	1033.3537194876772	0.0	682.2028629615482	1018.7077128281583	0.0	740.9374191787779	1018.1309422174913	0.0	716.9554042340267	684.3791477373474	0.0	715.4482529437821	850.7911973549534	0.0	738.7264900560397	998.063259159202	0.0	677.3777987751364	1038.1216398733511	0.0	701.3876200199934	1040.6023053017943	0.0	757.0015071916159	1024.7781483388683	0.0	679.707688196492	412.1519845065873	0.0	648.0401771231932	308.7321120627567	0.0	617.1411377590626	374.0257103300115	0.0	668.2137601159642	451.8758549130119	0.0	679.7492808255606	573.7165804795748	0.0	672.0019940771331	661.3089862508466	0.0	723.3820163369311	435.5351106560799	0.0	736.6828790954658	555.7365342685132	0.0	730.2633108316732	678.503840396308	0.0
81	2.70846394984326	704.6595217409405	677.5791651978479	0.0	691.5812413094178	684.4199709416513	0.0	703.5182406649917	844.8653587148453	0.0	729.8556125085739	987.3630216401564	0.0	686.6170335082396	1034.2932071122373	0.0	682.0335968352962	1019.1529856046355	0.0	741.0318449483669	1018.034856629352	0.0	716.2982052878303	682.7962205798968	0.0	715.8024884279075	850.3112897905272	0.0	738.3957880217228	998.6397794940232	0.0	677.254396420335	1038.956736662689	0.0	701.4262100647817	1041.5274212837867	0.0	756.5698774012862	1025.0100985969475	0.0	679.7307130248751	411.49211509099393	0.0	648.9553331116697	308.00440101245334	0.0	618.3492306079261	373.0057560004496	0.0	669.4020964251121	450.1720077833222	0.0	679.8680821785495	572.5949094282644	0.0	672.37701871266	658.8289431647584	0.0	721.778757870208	434.1409143961682	0.0	735.6060089443711	551.4843451710847	0.0	726.3386881203213	671.6293078436456	0.0
82	2.741901776384535	705.0444023030128	676.1370133493635	0.0	692.0089379323047	682.8114184375307	0.0	704.207823592044	845.0232301705566	0.0	729.27812637836	987.5987313958135	0.0	686.4518038965226	1034.3962909588533	0.0	681.9914968431593	1019.431822516515	0.0	741.3448336542641	1017.730088508036	0.0	715.9760218799178	681.4387392155702	0.0	715.8752094181866	850.076325696587	0.0	738.7494483863829	998.7531851431446	0.0	677.322198103923	1039.1716363447902	0.0	701.3512627547237	1041.9856706605983	0.0	756.3326430377845	1024.4790783330393	0.0	679.2232513521371	411.22163858022645	0.0	649.9910891709642	306.93409719194653	0.0	619.4713574421478	371.8698275630095	0.0	670.0277327359078	448.45526264034396	0.0	679.3111507597481	571.955532535274	0.0	672.2516713531493	657.0229231826318	0.0	720.4686577563994	432.6878997929405	0.0	735.0036925024617	547.7512832733419	0.0	721.9105938855784	663.5502951220299	0.0
83	2.7753396029258095	705.7975970092523	674.7742429925572	0.0	693.8401099466269	681.6078840605624	0.0	706.2832313311313	844.2140428285248	0.0	729.505131223994	988.0828772172812	0.0	686.3470681141466	1033.611850569738	0.0	682.0542763675172	1019.3996133778651	0.0	741.8791892495564	1017.5269118812453	0.0	716.4754959111439	680.1713439482539	0.0	715.798609369719	849.8258078020724	0.0	739.3201203320957	998.7547528660209	0.0	677.2337831238524	1038.8812490834346	0.0	700.7484639172959	1041.9746083389114	0.0	756.7451186464887	1024.712246120507	0.0	679.39488619274	410.82886043407336	0.0	650.6859351987157	306.2103589589741	0.0	619.4722583257584	371.0215424345199	0.0	670.5808083742593	447.5919800854683	0.0	678.6082198669053	571.6007306228341	0.0	671.2164454919177	656.3884496726901	0.0	720.1638694257695	431.9005876550401	0.0	734.9250088000506	546.33244462379	0.0	719.2884805872643	658.7035179879088	0.0
84	2.808777429467084	706.4997602840054	673.7180294323525	0.0	695.2682861656659	680.6928855856601	0.0	708.1569113559615	843.0550397450705	0.0	730.2055309591929	987.8571254167398	0.0	686.3047278976692	1032.7554931223037	0.0	682.3951473386712	1018.8353147167757	0.0	742.8608662982601	1017.3488487114764	0.0	717.2906234243231	679.2500606661387	0.0	715.7109693083647	849.5339707401193	0.0	739.8631891614639	998.6201274150674	0.0	677.0931469431232	1038.266279808819	0.0	700.3807777578671	1041.4780679461087	0.0	757.5408273325218	1025.366387240441	0.0	680.1524005034048	410.03586351364953	0.0	650.858672393557	306.08661573870535	0.0	618.923927701647	370.86290105704495	0.0	671.3084197694833	447.34166300904434	0.0	678.1790743662104	570.7814167955943	0.0	670.1451326505977	655.6044437443913	0.0	720.371411587842	431.5853079725832	0.0	735.7536357163679	545.7849132265571	0.0	719.2542342229553	656.3975257957197	0.0
